<?xml version="1.0" encoding="UTF-8" standalone="no"?>
<svg
   viewBox="0 0 1252 360"
   role="img"
   aria-labelledby="title desc"
   version="1.1"
   id="svg48"
   xmlns="http://www.w3.org/2000/svg"
   xmlns:svg="http://www.w3.org/2000/svg">
  <title
     id="title">NAVIAR CARE logo candidate v0.3</title>
  <desc
     id="desc">Flat NAVIAR CARE hybrid mark: two people form an embrace-heart around an N bridge and navigation node.</desc>
  <g
     transform="translate(36 34) scale(.88)"
     id="g16">
    <path
       fill="#09354F"
       d="M104 56a28 28 0 1 1-56 0 28 28 0 1 1 56 0z"
       id="path4" />
    <path
       fill="#3F8257"
       d="M225 72a22 22 0 1 1-44 0 22 22 0 1 1 44 0z"
       id="path6" />
    <path
       fill="#09354f"
       d="M 109.25,81 C 86.388912,81 63.828753,93.577581 50.943359,115.2793 a 21.0021,21.0021 0 0 0 -0.04492,0.0742 c -18.8867,32.10739 -13.737256,69.26638 5.714844,100.10156 19.4521,30.83518 51.428359,59.21005 90.892579,88.42383 a 21,21 0 0 0 29.37305,-4.38477 21,21 0 0 0 -4.38477,-29.37305 C 134.95844,242.33493 106.43459,215.70969 92.136719,193.04492 77.85049,170.3986 75.994988,155.562 87.078125,136.69141 93.188819,126.42013 100.62082,123 109.25,123 c 8.63888,0 19.12997,4.3166 28.20117,15.92773 a 21,21 0 0 0 29.47656,3.6211 21,21 0 0 0 3.6211,-29.47656 C 154.62005,92.683435 132.11109,81 109.25,81 Z"
       id="path8" />
    <path
       fill="#3f8257"
       d="m 209.625,84 c -22.39941,0 -44.8893,10.631786 -62.75586,29.68945 a 18,18 0 0 0 0.82031,25.44141 18,18 0 0 0 25.44141,-0.82031 C 185.26427,125.36825 198.77445,120 209.625,120 c 10.83435,0 19.34355,4.18763 25.86719,15.14453 11.65704,19.82868 9.56993,36.2604 -5.0918,59.50195 -14.66603,23.24837 -43.43592,49.99858 -81.10937,77.88672 a 18,18 0 0 0 -3.75782,25.17578 18,18 0 0 0 25.17578,3.75782 c 39.32648,-29.11181 71.05669,-57.3617 90.14063,-87.61328 19.08394,-30.25158 23.99747,-65.817 5.66601,-96.98047 a 18.0018,18.0018 0 0 0 -0.0391,-0.0625 C 254.00402,95.804165 232.02441,84 209.625,84 Z"
       id="path10" />
    <path
       fill="#09354f"
       d="m 101.14844,138.14453 a 12,12 0 0 0 -7.841799,4.78125 12,12 0 0 0 2.61914,16.76758 l 110.999999,81 a 12,12 0 0 0 16.76758,-2.61914 12,12 0 0 0 -2.61914,-16.76758 l -111,-81 a 12,12 0 0 0 -8.92578,-2.16211 z"
       id="path12" />
    <path
       fill="#3F8257"
       d="M160 177l13 13-13 13-13-13z"
       id="path14" />
  </g>
  <g
     fill="#09354F"
     transform="translate(350 78) scale(1.08)"
     id="g34">
    <path
       d="M20 100V20h20l51 54V20h19v80H91L39 46v54z"
       id="path18" />
    <path
       d="M140 100l48-80h20l48 80h-22l-36-61-36 61z"
       id="path20" />
    <path
       d="M186 78h24v11h-24z"
       id="path22" />
    <path
       d="M278 20h22l37 61 37-61h22l-49 80h-20z"
       id="path24" />
    <path
       d="M429 20h18v80h-18z"
       id="path26" />
    <path
       d="M480 100l48-80h20l48 80h-22l-36-61-36 61z"
       id="path28" />
    <path
       d="M526 78h24v11h-24z"
       id="path30" />
    <path
       fill-rule="evenodd"
       d="M630 100V20h62c29 0 45 12 45 31 0 16-10 27-29 30l36 19h-36l-42-31v31zm18-63v29h43c18 0 27-5 27-15 0-9-9-14-27-14z"
       id="path32" />
  </g>
  <g
     fill="#3F8257"
     id="g46">
    <path
       d="M876 230h-35q-25 0-25 25t25 25h35v-11h-34q-14 0-14-14t14-14h34z"
       id="path36" />
    <path
       d="M895 280l30-50h20l30 50h-15l-25-36-25 36z"
       id="path38" />
    <path
       d="M923 261h24v9h-24z"
       id="path40" />
    <path
       d="M995 280v-50h40q30 0 30 19 0 15-19 19l23 12h-21l-26-19v19zm13-39v16h27q16 0 16-8t-16-8z"
       id="path42" />
    <path
       d="M1090 230h60v11h-47v8h42v11h-42v9h47v11h-60z"
       id="path44" />
  </g>
</svg>
